<mxfile host="Electron" modified="2024-03-28T13:39:52.150Z" agent="Mozilla/5.0 (Windows NT 10.0; Win64; x64) AppleWebKit/537.36 (KHTML, like Gecko) draw.io/24.1.0 Chrome/120.0.6099.109 Electron/28.1.0 Safari/537.36" etag="F5eBnCPfG8IhQ-uJCosW" version="24.1.0" type="device" pages="2">
  <diagram id="6a731a19-8d31-9384-78a2-239565b7b9f0" name="Page-1">
    <mxGraphModel dx="4052" dy="3911" grid="1" gridSize="10" guides="1" tooltips="1" connect="1" arrows="1" fold="1" page="1" pageScale="1" pageWidth="827" pageHeight="1169" background="none" math="0" shadow="0">
      <root>
        <mxCell id="0" />
        <mxCell id="1" parent="0" />
        <mxCell id="O0wL-zpKEQLLvVsr3I_h-2264" value="Здание №3" style="rounded=1;whiteSpace=wrap;html=1;strokeColor=none;fillColor=#BAC8D3;fontSize=24;fontColor=#23445D;align=center;opacity=60;" vertex="1" parent="1">
          <mxGeometry x="740" y="-290" width="643" height="900" as="geometry" />
        </mxCell>
        <mxCell id="2093" value="Здание №6" style="rounded=1;whiteSpace=wrap;html=1;strokeColor=none;fillColor=#BAC8D3;fontSize=24;fontColor=#23445D;align=center;opacity=60;" parent="1" vertex="1">
          <mxGeometry x="-680" y="760" width="480" height="376" as="geometry" />
        </mxCell>
        <mxCell id="2112" value="" style="shape=mxgraph.cisco.switches.layer_3_switch;html=1;dashed=0;fillColor=#10739E;strokeColor=#ffffff;strokeWidth=2;verticalLabelPosition=bottom;verticalAlign=top;fontFamily=Helvetica;fontSize=36;fontColor=#FFB366" parent="1" vertex="1">
          <mxGeometry x="940" y="384" width="200" height="200" as="geometry" />
        </mxCell>
        <mxCell id="2227" value="&lt;font color=&quot;#23445d&quot;&gt;External servers&lt;/font&gt;" style="rounded=1;whiteSpace=wrap;html=1;strokeColor=none;fillColor=none;fontSize=14;fontColor=#742B21;align=center;fontStyle=1" parent="1" vertex="1">
          <mxGeometry x="1315" y="42" width="143" height="19" as="geometry" />
        </mxCell>
        <mxCell id="2233" value="Access 1" style="rounded=1;whiteSpace=wrap;html=1;strokeColor=none;fillColor=none;fontSize=14;fontColor=#23445D;align=center;fontStyle=1" parent="1" vertex="1">
          <mxGeometry x="142" y="1130" width="93" height="19" as="geometry" />
        </mxCell>
        <mxCell id="O0wL-zpKEQLLvVsr3I_h-2258" value="Здание №1" style="rounded=1;whiteSpace=wrap;html=1;strokeColor=none;fillColor=#BAC8D3;fontSize=24;fontColor=#23445D;align=center;opacity=60;" vertex="1" parent="1">
          <mxGeometry x="-730" y="290" width="480" height="376" as="geometry" />
        </mxCell>
        <mxCell id="O0wL-zpKEQLLvVsr3I_h-2259" value="Здание №2" style="rounded=1;whiteSpace=wrap;html=1;strokeColor=none;fillColor=#BAC8D3;fontSize=24;fontColor=#23445D;align=center;opacity=60;" vertex="1" parent="1">
          <mxGeometry x="-540" y="-1340" width="1080" height="1579.5" as="geometry" />
        </mxCell>
        <mxCell id="O0wL-zpKEQLLvVsr3I_h-2262" value="Здание №5" style="rounded=1;whiteSpace=wrap;html=1;strokeColor=none;fillColor=#BAC8D3;fontSize=24;fontColor=#23445D;align=center;opacity=60;" vertex="1" parent="1">
          <mxGeometry x="60" y="1100" width="480" height="376" as="geometry" />
        </mxCell>
        <mxCell id="O0wL-zpKEQLLvVsr3I_h-2263" value="Здание №4" style="rounded=1;whiteSpace=wrap;html=1;strokeColor=none;fillColor=#BAC8D3;fontSize=24;fontColor=#23445D;align=center;opacity=60;" vertex="1" parent="1">
          <mxGeometry x="810" y="760" width="480" height="880" as="geometry" />
        </mxCell>
        <mxCell id="O0wL-zpKEQLLvVsr3I_h-2266" value="" style="shape=mxgraph.cisco.switches.layer_3_switch;html=1;dashed=0;fillColor=#10739E;strokeColor=#ffffff;strokeWidth=2;verticalLabelPosition=bottom;verticalAlign=top;fontFamily=Helvetica;fontSize=36;fontColor=#FFB366" vertex="1" parent="1">
          <mxGeometry x="-680" y="2050" width="200" height="200" as="geometry" />
        </mxCell>
        <mxCell id="O0wL-zpKEQLLvVsr3I_h-2267" value="&lt;font style=&quot;font-size: 48px;&quot;&gt;Коммутатор уровня ядра&lt;/font&gt;" style="text;html=1;align=center;verticalAlign=middle;resizable=0;points=[];autosize=1;strokeColor=none;fillColor=none;" vertex="1" parent="1">
          <mxGeometry x="-430" y="2120" width="580" height="70" as="geometry" />
        </mxCell>
        <mxCell id="O0wL-zpKEQLLvVsr3I_h-2268" value="" style="shape=mxgraph.cisco.switches.workgroup_switch;html=1;dashed=0;fillColor=#10739E;strokeColor=#ffffff;strokeWidth=2;verticalLabelPosition=bottom;verticalAlign=top;fontFamily=Helvetica;fontSize=36;fontColor=#FFB366" vertex="1" parent="1">
          <mxGeometry x="-720" y="2370" width="270" height="140" as="geometry" />
        </mxCell>
        <mxCell id="O0wL-zpKEQLLvVsr3I_h-2269" value="&lt;font style=&quot;font-size: 48px;&quot;&gt;Коммутатор уровня доступа&lt;/font&gt;" style="text;html=1;align=center;verticalAlign=middle;resizable=0;points=[];autosize=1;strokeColor=none;fillColor=none;" vertex="1" parent="1">
          <mxGeometry x="-435" y="2390" width="650" height="70" as="geometry" />
        </mxCell>
        <mxCell id="O0wL-zpKEQLLvVsr3I_h-2272" value="" style="shape=mxgraph.cisco.routers.router;sketch=0;html=1;pointerEvents=1;dashed=0;fillColor=#036897;strokeColor=#ffffff;strokeWidth=2;verticalLabelPosition=bottom;verticalAlign=top;align=center;outlineConnect=0;" vertex="1" parent="1">
          <mxGeometry x="-705" y="2650" width="250" height="173" as="geometry" />
        </mxCell>
        <mxCell id="O0wL-zpKEQLLvVsr3I_h-2273" value="&lt;font style=&quot;font-size: 48px;&quot;&gt;Коммутатор уровня распределения&lt;/font&gt;" style="text;html=1;align=center;verticalAlign=middle;resizable=0;points=[];autosize=1;strokeColor=none;fillColor=none;" vertex="1" parent="1">
          <mxGeometry x="-396" y="2710" width="810" height="70" as="geometry" />
        </mxCell>
        <mxCell id="O0wL-zpKEQLLvVsr3I_h-2274" value="" style="shape=mxgraph.cisco.computers_and_peripherals.terminal;sketch=0;html=1;pointerEvents=1;dashed=0;fillColor=#036897;strokeColor=#ffffff;strokeWidth=2;verticalLabelPosition=bottom;verticalAlign=top;align=center;outlineConnect=0;" vertex="1" parent="1">
          <mxGeometry x="460" y="2050" width="250" height="190" as="geometry" />
        </mxCell>
        <mxCell id="O0wL-zpKEQLLvVsr3I_h-2276" value="&lt;span style=&quot;font-size: 48px;&quot;&gt;МФУ&lt;/span&gt;" style="text;html=1;align=center;verticalAlign=middle;resizable=0;points=[];autosize=1;strokeColor=none;fillColor=none;" vertex="1" parent="1">
          <mxGeometry x="880" y="2560" width="130" height="70" as="geometry" />
        </mxCell>
        <mxCell id="O0wL-zpKEQLLvVsr3I_h-2281" value="" style="endArrow=classic;startArrow=classic;html=1;rounded=0;" edge="1" parent="1" source="O0wL-zpKEQLLvVsr3I_h-2284" target="2112">
          <mxGeometry width="50" height="50" relative="1" as="geometry">
            <mxPoint x="350" y="600" as="sourcePoint" />
            <mxPoint x="730" y="400" as="targetPoint" />
          </mxGeometry>
        </mxCell>
        <mxCell id="O0wL-zpKEQLLvVsr3I_h-2282" value="" style="endArrow=none;dashed=1;html=1;rounded=0;" edge="1" parent="1" target="2112">
          <mxGeometry width="50" height="50" relative="1" as="geometry">
            <mxPoint x="1600" y="480" as="sourcePoint" />
            <mxPoint x="620" y="660" as="targetPoint" />
            <Array as="points">
              <mxPoint x="1470" y="480" />
            </Array>
          </mxGeometry>
        </mxCell>
        <mxCell id="O0wL-zpKEQLLvVsr3I_h-2283" value="&lt;font style=&quot;font-size: 36px;&quot;&gt;2 Шт&lt;/font&gt;" style="text;html=1;align=center;verticalAlign=middle;resizable=0;points=[];autosize=1;strokeColor=none;fillColor=none;" vertex="1" parent="1">
          <mxGeometry x="1540" y="393" width="100" height="60" as="geometry" />
        </mxCell>
        <mxCell id="O0wL-zpKEQLLvVsr3I_h-2299" style="edgeStyle=orthogonalEdgeStyle;rounded=0;orthogonalLoop=1;jettySize=auto;html=1;strokeColor=#00FF00;fillColor=#00FF00;" edge="1" parent="1" source="O0wL-zpKEQLLvVsr3I_h-2284" target="O0wL-zpKEQLLvVsr3I_h-2297">
          <mxGeometry relative="1" as="geometry">
            <Array as="points">
              <mxPoint x="-80" y="148" />
              <mxPoint x="-80" y="-800" />
            </Array>
          </mxGeometry>
        </mxCell>
        <mxCell id="O0wL-zpKEQLLvVsr3I_h-2284" value="" style="shape=mxgraph.cisco.routers.router;sketch=0;html=1;pointerEvents=1;dashed=0;fillColor=#036897;strokeColor=#ffffff;strokeWidth=2;verticalLabelPosition=bottom;verticalAlign=top;align=center;outlineConnect=0;" vertex="1" parent="1">
          <mxGeometry x="200" y="61" width="220" height="173" as="geometry" />
        </mxCell>
        <mxCell id="O0wL-zpKEQLLvVsr3I_h-2285" value="" style="shape=mxgraph.cisco.routers.router;sketch=0;html=1;pointerEvents=1;dashed=0;fillColor=#036897;strokeColor=#ffffff;strokeWidth=2;verticalLabelPosition=bottom;verticalAlign=top;align=center;outlineConnect=0;" vertex="1" parent="1">
          <mxGeometry x="890" y="760" width="250" height="173" as="geometry" />
        </mxCell>
        <mxCell id="O0wL-zpKEQLLvVsr3I_h-2286" value="" style="endArrow=classic;startArrow=classic;html=1;rounded=0;" edge="1" parent="1" target="O0wL-zpKEQLLvVsr3I_h-2285">
          <mxGeometry width="50" height="50" relative="1" as="geometry">
            <mxPoint x="430" y="214" as="sourcePoint" />
            <mxPoint x="950" y="449" as="targetPoint" />
          </mxGeometry>
        </mxCell>
        <mxCell id="O0wL-zpKEQLLvVsr3I_h-2287" value="" style="endArrow=classic;startArrow=classic;html=1;rounded=0;entryX=0.5;entryY=1;entryDx=0;entryDy=0;entryPerimeter=0;" edge="1" parent="1" source="O0wL-zpKEQLLvVsr3I_h-2285" target="2112">
          <mxGeometry width="50" height="50" relative="1" as="geometry">
            <mxPoint x="440" y="224" as="sourcePoint" />
            <mxPoint x="960" y="459" as="targetPoint" />
          </mxGeometry>
        </mxCell>
        <mxCell id="O0wL-zpKEQLLvVsr3I_h-2288" value="" style="endArrow=classic;startArrow=classic;html=1;rounded=0;" edge="1" parent="1">
          <mxGeometry width="50" height="50" relative="1" as="geometry">
            <mxPoint x="-390" y="3017.5" as="sourcePoint" />
            <mxPoint x="130" y="3252.5" as="targetPoint" />
          </mxGeometry>
        </mxCell>
        <mxCell id="O0wL-zpKEQLLvVsr3I_h-2289" value="&lt;font style=&quot;font-size: 48px;&quot;&gt;Оптическое подключение скоростью 10GE&lt;/font&gt;" style="text;html=1;align=center;verticalAlign=middle;resizable=0;points=[];autosize=1;strokeColor=none;fillColor=none;" vertex="1" parent="1">
          <mxGeometry x="170" y="3100" width="980" height="70" as="geometry" />
        </mxCell>
        <mxCell id="O0wL-zpKEQLLvVsr3I_h-2290" value="" style="shape=mxgraph.cisco.servers.standard_host;sketch=0;html=1;pointerEvents=1;dashed=0;fillColor=#036897;strokeColor=#ffffff;strokeWidth=2;verticalLabelPosition=bottom;verticalAlign=top;align=center;outlineConnect=0;" vertex="1" parent="1">
          <mxGeometry x="190" y="-500" width="220" height="262" as="geometry" />
        </mxCell>
        <mxCell id="O0wL-zpKEQLLvVsr3I_h-2291" value="" style="endArrow=classic;startArrow=classic;html=1;rounded=0;fillColor=#FF0000;strokeColor=#FF0000;" edge="1" parent="1" source="O0wL-zpKEQLLvVsr3I_h-2284" target="O0wL-zpKEQLLvVsr3I_h-2290">
          <mxGeometry width="50" height="50" relative="1" as="geometry">
            <mxPoint x="750" y="30" as="sourcePoint" />
            <mxPoint x="650" y="-140" as="targetPoint" />
          </mxGeometry>
        </mxCell>
        <mxCell id="O0wL-zpKEQLLvVsr3I_h-2292" value="" style="shape=mxgraph.cisco.servers.standard_host;sketch=0;html=1;pointerEvents=1;dashed=0;fillColor=#036897;strokeColor=#ffffff;strokeWidth=2;verticalLabelPosition=bottom;verticalAlign=top;align=center;outlineConnect=0;" vertex="1" parent="1">
          <mxGeometry x="920" y="1270" width="220" height="262" as="geometry" />
        </mxCell>
        <mxCell id="O0wL-zpKEQLLvVsr3I_h-2293" value="" style="endArrow=classic;startArrow=classic;html=1;rounded=0;fillColor=#FF0000;strokeColor=#FF0000;" edge="1" parent="1" target="O0wL-zpKEQLLvVsr3I_h-2285">
          <mxGeometry width="50" height="50" relative="1" as="geometry">
            <mxPoint x="1038.5" y="1270" as="sourcePoint" />
            <mxPoint x="1041.5" y="971" as="targetPoint" />
          </mxGeometry>
        </mxCell>
        <mxCell id="O0wL-zpKEQLLvVsr3I_h-2294" value="" style="shape=mxgraph.cisco.servers.standard_host;sketch=0;html=1;pointerEvents=1;dashed=0;fillColor=#036897;strokeColor=#ffffff;strokeWidth=2;verticalLabelPosition=bottom;verticalAlign=top;align=center;outlineConnect=0;" vertex="1" parent="1">
          <mxGeometry x="960" y="-230" width="220" height="262" as="geometry" />
        </mxCell>
        <mxCell id="O0wL-zpKEQLLvVsr3I_h-2296" value="" style="endArrow=classic;startArrow=classic;html=1;rounded=0;fillColor=#FF0000;strokeColor=#FF0000;" edge="1" parent="1">
          <mxGeometry width="50" height="50" relative="1" as="geometry">
            <mxPoint x="1050" y="370" as="sourcePoint" />
            <mxPoint x="1060.75" y="20" as="targetPoint" />
          </mxGeometry>
        </mxCell>
        <mxCell id="GrAGvCCeGatEEFNo7pwK-2233" style="edgeStyle=none;rounded=0;orthogonalLoop=1;jettySize=auto;html=1;exitX=0.16;exitY=0.23;exitDx=0;exitDy=0;exitPerimeter=0;" edge="1" parent="1" source="O0wL-zpKEQLLvVsr3I_h-2297">
          <mxGeometry relative="1" as="geometry">
            <mxPoint x="-170" y="-1042.230421094057" as="targetPoint" />
          </mxGeometry>
        </mxCell>
        <mxCell id="O0wL-zpKEQLLvVsr3I_h-2297" value="" style="shape=mxgraph.cisco.switches.workgroup_switch;html=1;dashed=0;fillColor=#10739E;strokeColor=#ffffff;strokeWidth=2;verticalLabelPosition=bottom;verticalAlign=top;fontFamily=Helvetica;fontSize=36;fontColor=#FFB366" vertex="1" parent="1">
          <mxGeometry x="165" y="-870" width="270" height="140" as="geometry" />
        </mxCell>
        <mxCell id="O0wL-zpKEQLLvVsr3I_h-2300" value="" style="shape=mxgraph.cisco.computers_and_peripherals.terminal;sketch=0;html=1;pointerEvents=1;dashed=0;fillColor=#036897;strokeColor=#ffffff;strokeWidth=2;verticalLabelPosition=bottom;verticalAlign=top;align=center;outlineConnect=0;" vertex="1" parent="1">
          <mxGeometry x="175" y="-1180" width="250" height="190" as="geometry" />
        </mxCell>
        <mxCell id="GrAGvCCeGatEEFNo7pwK-2234" style="edgeStyle=none;rounded=0;orthogonalLoop=1;jettySize=auto;html=1;exitX=0.5;exitY=1;exitDx=0;exitDy=0;exitPerimeter=0;entryX=0.575;entryY=0.211;entryDx=0;entryDy=0;entryPerimeter=0;" edge="1" parent="1" source="O0wL-zpKEQLLvVsr3I_h-2300" target="O0wL-zpKEQLLvVsr3I_h-2297">
          <mxGeometry relative="1" as="geometry" />
        </mxCell>
        <mxCell id="GrAGvCCeGatEEFNo7pwK-2235" value="&lt;font style=&quot;font-size: 48px;&quot;&gt;АРМ&lt;/font&gt;" style="text;html=1;align=center;verticalAlign=middle;resizable=0;points=[];autosize=1;strokeColor=none;fillColor=none;" vertex="1" parent="1">
          <mxGeometry x="845" y="2118" width="130" height="70" as="geometry" />
        </mxCell>
        <mxCell id="GrAGvCCeGatEEFNo7pwK-2236" value="" style="endArrow=classic;startArrow=classic;html=1;rounded=0;fillColor=#FF0000;strokeColor=#FF0000;" edge="1" parent="1">
          <mxGeometry width="50" height="50" relative="1" as="geometry">
            <mxPoint x="-150" y="3590" as="sourcePoint" />
            <mxPoint x="-396" y="3360" as="targetPoint" />
          </mxGeometry>
        </mxCell>
        <mxCell id="GrAGvCCeGatEEFNo7pwK-2237" value="&lt;font style=&quot;font-size: 48px;&quot;&gt;Оптическое подключение скоростью 40GE&lt;/font&gt;" style="text;html=1;align=center;verticalAlign=middle;resizable=0;points=[];autosize=1;strokeColor=none;fillColor=none;" vertex="1" parent="1">
          <mxGeometry x="-30" y="3490" width="980" height="70" as="geometry" />
        </mxCell>
        <mxCell id="GrAGvCCeGatEEFNo7pwK-2238" style="edgeStyle=none;rounded=0;orthogonalLoop=1;jettySize=auto;html=1;exitX=0.16;exitY=0.23;exitDx=0;exitDy=0;exitPerimeter=0;fillColor=#00FF00;strokeColor=#00FF00;" edge="1" parent="1">
          <mxGeometry relative="1" as="geometry">
            <mxPoint x="-77" y="3874" as="sourcePoint" />
            <mxPoint x="-455" y="3670" as="targetPoint" />
          </mxGeometry>
        </mxCell>
        <mxCell id="GrAGvCCeGatEEFNo7pwK-2240" value="&lt;font style=&quot;font-size: 48px;&quot;&gt;Подключение скоростью 1000 BASE-T&lt;/font&gt;" style="text;html=1;align=center;verticalAlign=middle;resizable=0;points=[];autosize=1;strokeColor=none;fillColor=none;" vertex="1" parent="1">
          <mxGeometry x="60" y="3840" width="880" height="70" as="geometry" />
        </mxCell>
        <mxCell id="GrAGvCCeGatEEFNo7pwK-2241" value="" style="shape=mxgraph.cisco.computers_and_peripherals.printer;sketch=0;html=1;pointerEvents=1;dashed=0;fillColor=#036897;strokeColor=#ffffff;strokeWidth=2;verticalLabelPosition=bottom;verticalAlign=top;align=center;outlineConnect=0;" vertex="1" parent="1">
          <mxGeometry x="489" y="2480" width="401" height="204" as="geometry" />
        </mxCell>
        <mxCell id="GrAGvCCeGatEEFNo7pwK-2242" value="" style="shape=mxgraph.cisco.computers_and_peripherals.printer;sketch=0;html=1;pointerEvents=1;dashed=0;fillColor=#036897;strokeColor=#ffffff;strokeWidth=2;verticalLabelPosition=bottom;verticalAlign=top;align=center;outlineConnect=0;" vertex="1" parent="1">
          <mxGeometry x="-480" y="-1250" width="401" height="204" as="geometry" />
        </mxCell>
      </root>
    </mxGraphModel>
  </diagram>
  <diagram id="YuzWH9W_6HG5Alrj0R4K" name="Страница — 2">
    <mxGraphModel dx="4052" dy="1573" grid="1" gridSize="10" guides="1" tooltips="1" connect="1" arrows="1" fold="1" page="1" pageScale="1" pageWidth="827" pageHeight="1169" math="0" shadow="0">
      <root>
        <mxCell id="0" />
        <mxCell id="1" parent="0" />
        <mxCell id="rIAI9xv2NlO3Iu7Zr0Gl-1" value="АРМ 1" style="shape=ext;double=1;rounded=0;whiteSpace=wrap;html=1;" vertex="1" parent="1">
          <mxGeometry x="280" y="160" width="120" height="80" as="geometry" />
        </mxCell>
        <mxCell id="rIAI9xv2NlO3Iu7Zr0Gl-2" value="АРМ 1" style="shape=ext;double=1;rounded=0;whiteSpace=wrap;html=1;" vertex="1" parent="1">
          <mxGeometry x="280" y="250" width="120" height="80" as="geometry" />
        </mxCell>
        <mxCell id="rIAI9xv2NlO3Iu7Zr0Gl-3" value="АРМ 1" style="shape=ext;double=1;rounded=0;whiteSpace=wrap;html=1;" vertex="1" parent="1">
          <mxGeometry x="280" y="340" width="120" height="80" as="geometry" />
        </mxCell>
        <mxCell id="rIAI9xv2NlO3Iu7Zr0Gl-4" value="АРМ 1" style="shape=ext;double=1;rounded=0;whiteSpace=wrap;html=1;" vertex="1" parent="1">
          <mxGeometry x="280" y="430" width="120" height="80" as="geometry" />
        </mxCell>
        <mxCell id="rIAI9xv2NlO3Iu7Zr0Gl-5" value="АРМ 1" style="shape=ext;double=1;rounded=0;whiteSpace=wrap;html=1;" vertex="1" parent="1">
          <mxGeometry x="280" y="520" width="120" height="80" as="geometry" />
        </mxCell>
        <mxCell id="rIAI9xv2NlO3Iu7Zr0Gl-6" value="Сетевое устройство №1&amp;nbsp;" style="shape=ext;double=1;rounded=0;whiteSpace=wrap;html=1;" vertex="1" parent="1">
          <mxGeometry x="-60" y="180" width="120" height="440" as="geometry" />
        </mxCell>
        <mxCell id="rIAI9xv2NlO3Iu7Zr0Gl-8" style="edgeStyle=orthogonalEdgeStyle;rounded=0;orthogonalLoop=1;jettySize=auto;html=1;exitX=1;exitY=0.5;exitDx=0;exitDy=0;entryX=0;entryY=0.5;entryDx=0;entryDy=0;" edge="1" parent="1" source="rIAI9xv2NlO3Iu7Zr0Gl-7" target="rIAI9xv2NlO3Iu7Zr0Gl-1">
          <mxGeometry relative="1" as="geometry" />
        </mxCell>
        <mxCell id="rIAI9xv2NlO3Iu7Zr0Gl-7" value="0/1" style="shape=ext;double=1;rounded=0;whiteSpace=wrap;html=1;" vertex="1" parent="1">
          <mxGeometry x="60" y="180" width="50" height="40" as="geometry" />
        </mxCell>
        <mxCell id="rIAI9xv2NlO3Iu7Zr0Gl-9" value="АРМ 1" style="shape=ext;double=1;rounded=0;whiteSpace=wrap;html=1;" vertex="1" parent="1">
          <mxGeometry x="280" y="610" width="120" height="80" as="geometry" />
        </mxCell>
        <mxCell id="rIAI9xv2NlO3Iu7Zr0Gl-10" value="АРМ 1" style="shape=ext;double=1;rounded=0;whiteSpace=wrap;html=1;" vertex="1" parent="1">
          <mxGeometry x="280" y="700" width="120" height="80" as="geometry" />
        </mxCell>
        <mxCell id="rIAI9xv2NlO3Iu7Zr0Gl-11" value="АРМ 1" style="shape=ext;double=1;rounded=0;whiteSpace=wrap;html=1;" vertex="1" parent="1">
          <mxGeometry x="280" y="790" width="120" height="80" as="geometry" />
        </mxCell>
        <mxCell id="rIAI9xv2NlO3Iu7Zr0Gl-12" value="АРМ 1" style="shape=ext;double=1;rounded=0;whiteSpace=wrap;html=1;" vertex="1" parent="1">
          <mxGeometry x="280" y="880" width="120" height="80" as="geometry" />
        </mxCell>
        <mxCell id="rIAI9xv2NlO3Iu7Zr0Gl-13" value="АРМ 1" style="shape=ext;double=1;rounded=0;whiteSpace=wrap;html=1;" vertex="1" parent="1">
          <mxGeometry x="280" y="970" width="120" height="80" as="geometry" />
        </mxCell>
        <mxCell id="rIAI9xv2NlO3Iu7Zr0Gl-14" value="АРМ 1" style="shape=ext;double=1;rounded=0;whiteSpace=wrap;html=1;" vertex="1" parent="1">
          <mxGeometry x="-490" y="230" width="120" height="80" as="geometry" />
        </mxCell>
        <mxCell id="rIAI9xv2NlO3Iu7Zr0Gl-15" value="АРМ 1" style="shape=ext;double=1;rounded=0;whiteSpace=wrap;html=1;" vertex="1" parent="1">
          <mxGeometry x="-490" y="320" width="120" height="80" as="geometry" />
        </mxCell>
        <mxCell id="rIAI9xv2NlO3Iu7Zr0Gl-16" value="АРМ 1" style="shape=ext;double=1;rounded=0;whiteSpace=wrap;html=1;" vertex="1" parent="1">
          <mxGeometry x="-490" y="410" width="120" height="80" as="geometry" />
        </mxCell>
        <mxCell id="rIAI9xv2NlO3Iu7Zr0Gl-17" value="АРМ 1" style="shape=ext;double=1;rounded=0;whiteSpace=wrap;html=1;" vertex="1" parent="1">
          <mxGeometry x="-490" y="500" width="120" height="80" as="geometry" />
        </mxCell>
        <mxCell id="rIAI9xv2NlO3Iu7Zr0Gl-18" value="АРМ 1" style="shape=ext;double=1;rounded=0;whiteSpace=wrap;html=1;" vertex="1" parent="1">
          <mxGeometry x="-490" y="590" width="120" height="80" as="geometry" />
        </mxCell>
        <mxCell id="rIAI9xv2NlO3Iu7Zr0Gl-19" value="АРМ 1" style="shape=ext;double=1;rounded=0;whiteSpace=wrap;html=1;" vertex="1" parent="1">
          <mxGeometry x="-310" y="560" width="120" height="80" as="geometry" />
        </mxCell>
        <mxCell id="rIAI9xv2NlO3Iu7Zr0Gl-20" value="АРМ 1" style="shape=ext;double=1;rounded=0;whiteSpace=wrap;html=1;" vertex="1" parent="1">
          <mxGeometry x="-310" y="650" width="120" height="80" as="geometry" />
        </mxCell>
        <mxCell id="rIAI9xv2NlO3Iu7Zr0Gl-21" value="АРМ 1" style="shape=ext;double=1;rounded=0;whiteSpace=wrap;html=1;" vertex="1" parent="1">
          <mxGeometry x="-310" y="740" width="120" height="80" as="geometry" />
        </mxCell>
        <mxCell id="rIAI9xv2NlO3Iu7Zr0Gl-22" value="АРМ 1" style="shape=ext;double=1;rounded=0;whiteSpace=wrap;html=1;" vertex="1" parent="1">
          <mxGeometry x="-310" y="830" width="120" height="80" as="geometry" />
        </mxCell>
        <mxCell id="rIAI9xv2NlO3Iu7Zr0Gl-23" value="АРМ 1" style="shape=ext;double=1;rounded=0;whiteSpace=wrap;html=1;" vertex="1" parent="1">
          <mxGeometry x="-310" y="920" width="120" height="80" as="geometry" />
        </mxCell>
      </root>
    </mxGraphModel>
  </diagram>
</mxfile>
